<svg width="168" height="19" viewBox="0 0 168 19" fill="none" xmlns="http://www.w3.org/2000/svg">
<path d="M0.1664 18L1.17728 1.8H6.95744L9.368 10.9757H9.54944L11.96 1.8H17.7661L18.777 18H14.241L13.7226 8.95392H13.5411L11.2083 18H7.70912L5.3504 8.95392H5.19488L4.7024 18H0.1664ZM27.4508 18.3629C26.2758 18.3629 25.2736 18.2333 24.4441 17.9741C23.6147 17.7149 22.9321 17.3174 22.3964 16.7818C21.878 16.2288 21.4892 15.5203 21.23 14.6563C20.9881 13.775 20.8672 12.7296 20.8672 11.52C20.8672 10.2931 20.9881 9.24768 21.23 8.38368C21.4892 7.5024 21.878 6.79392 22.3964 6.25824C22.9321 5.70528 23.6147 5.30784 24.4441 5.06592C25.2736 4.80672 26.2758 4.67712 27.4508 4.67712C28.6259 4.67712 29.6281 4.80672 30.4576 5.06592C31.287 5.30784 31.9609 5.70528 32.4793 6.25824C33.015 6.79392 33.4038 7.5024 33.6457 8.38368C33.8876 9.24768 34.0086 10.2931 34.0086 11.52C34.0086 12.7296 33.8876 13.775 33.6457 14.6563C33.4038 15.5203 33.015 16.2288 32.4793 16.7818C31.9609 17.3174 31.287 17.7149 30.4576 17.9741C29.6281 18.2333 28.6259 18.3629 27.4508 18.3629ZM25.766 14.8896H28.0729C28.4876 14.8896 28.7641 14.8464 28.9024 14.76C29.0579 14.6563 29.1356 14.4662 29.1356 14.1898V8.1504H26.8288C26.414 8.1504 26.1289 8.20224 25.9734 8.30592C25.8352 8.39232 25.766 8.57376 25.766 8.85024V14.8896ZM36.5243 18V5.04H38.7793L39.9198 6.336C40.6628 5.78304 41.4577 5.36832 42.3044 5.09184C43.1511 4.81536 44.0583 4.67712 45.026 4.67712C46.2529 4.67712 47.1947 4.92768 47.8513 5.4288C48.5252 5.91264 48.8622 6.5952 48.8622 7.47648V18H44.3003V8.43552H42.3822C41.8983 8.43552 41.5614 8.50464 41.3713 8.64288C41.1812 8.78112 41.0862 9.0144 41.0862 9.34272V18H36.5243Z" fill="#191919"/>
<path d="M50.4393 18L54.742 1.8H61.8181L66.1209 18H61.5589L58.3967 6.15456H58.1634L55.0012 18H50.4393ZM53.3164 15.1747V11.831H63.2437V15.1747H53.3164ZM80.0695 5.04V18H77.8144L76.648 16.704C75.9223 17.257 75.1274 17.6717 74.2634 17.9482C73.3994 18.2246 72.4749 18.3629 71.4899 18.3629C70.1939 18.3629 69.2435 18.0864 68.6387 17.5334C68.0339 16.9632 67.7315 16.0646 67.7315 14.8378V5.04H72.2935V15.2266H74.2115C74.6954 15.2266 75.0323 15.1574 75.2224 15.0192C75.4125 14.881 75.5075 14.6477 75.5075 14.3194V5.04H80.0695ZM86.7268 18.3629C85.7073 18.3629 84.947 18.1555 84.4459 17.7408C83.962 17.3088 83.7201 16.6435 83.7201 15.745V2.81088L88.282 1.6704V14.7341C88.5585 14.7686 88.8264 14.8032 89.0856 14.8378C89.3448 14.855 89.6126 14.8723 89.8891 14.8896L89.6817 17.9741C89.0942 18.1123 88.5499 18.2074 88.0488 18.2592C87.5649 18.3283 87.1243 18.3629 86.7268 18.3629ZM82.2945 8.0208V5.04H90.2001V8.0208H82.2945ZM98.5283 18.3629C97.3533 18.3629 96.3511 18.2333 95.5216 17.9741C94.6922 17.7149 94.0096 17.3174 93.4739 16.7818C92.9555 16.2288 92.5667 15.5203 92.3075 14.6563C92.0656 13.775 91.9447 12.7296 91.9447 11.52C91.9447 10.2931 92.0656 9.24768 92.3075 8.38368C92.5667 7.5024 92.9555 6.79392 93.4739 6.25824C94.0096 5.70528 94.6922 5.30784 95.5216 5.06592C96.3511 4.80672 97.3533 4.67712 98.5283 4.67712C99.7034 4.67712 100.706 4.80672 101.535 5.06592C102.365 5.30784 103.038 5.70528 103.557 6.25824C104.093 6.79392 104.481 7.5024 104.723 8.38368C104.965 9.24768 105.086 10.2931 105.086 11.52C105.086 12.7296 104.965 13.775 104.723 14.6563C104.481 15.5203 104.093 16.2288 103.557 16.7818C103.038 17.3174 102.365 17.7149 101.535 17.9741C100.706 18.2333 99.7034 18.3629 98.5283 18.3629ZM96.8435 14.8896H99.1504C99.5651 14.8896 99.8416 14.8464 99.9799 14.76C100.135 14.6563 100.213 14.4662 100.213 14.1898V8.1504H97.9063C97.4915 8.1504 97.2064 8.20224 97.0509 8.30592C96.9127 8.39232 96.8435 8.57376 96.8435 8.85024V14.8896ZM112.164 11.5718V14.2416H118.488V18H107.602V1.8H118.566L117.996 5.5584H112.164V8.22816H117.555V11.5718H112.164ZM126.071 18.3629C125.069 18.3629 124.214 18.2419 123.505 18C122.797 17.7408 122.218 17.3347 121.768 16.7818C121.319 16.2288 120.982 15.5203 120.758 14.6563C120.55 13.7923 120.447 12.7469 120.447 11.52C120.447 10.2931 120.55 9.24768 120.758 8.38368C120.982 7.5024 121.319 6.79392 121.768 6.25824C122.218 5.70528 122.797 5.30784 123.505 5.06592C124.214 4.80672 125.069 4.67712 126.071 4.67712C126.572 4.67712 127.099 4.70304 127.652 4.75488C128.223 4.80672 128.758 4.8672 129.259 4.93632C129.76 5.00544 130.158 5.09184 130.452 5.19552L130.037 8.4096C129.588 8.27136 129.13 8.17632 128.663 8.12448C128.214 8.07264 127.73 8.04672 127.212 8.04672C126.52 8.04672 126.037 8.1936 125.76 8.48736C125.484 8.78112 125.345 9.29088 125.345 10.0166V14.8378C125.691 14.9414 126.235 14.9933 126.978 14.9933C127.566 14.9933 128.128 14.9414 128.663 14.8378C129.199 14.7168 129.743 14.544 130.296 14.3194L130.711 17.5075C130.02 17.784 129.277 17.9914 128.482 18.1296C127.704 18.2851 126.901 18.3629 126.071 18.3629ZM138.699 18.3629C137.524 18.3629 136.522 18.2333 135.693 17.9741C134.863 17.7149 134.181 17.3174 133.645 16.7818C133.126 16.2288 132.738 15.5203 132.478 14.6563C132.237 13.775 132.116 12.7296 132.116 11.52C132.116 10.2931 132.237 9.24768 132.478 8.38368C132.738 7.5024 133.126 6.79392 133.645 6.25824C134.181 5.70528 134.863 5.30784 135.693 5.06592C136.522 4.80672 137.524 4.67712 138.699 4.67712C139.874 4.67712 140.877 4.80672 141.706 5.06592C142.535 5.30784 143.209 5.70528 143.728 6.25824C144.263 6.79392 144.652 7.5024 144.894 8.38368C145.136 9.24768 145.257 10.2931 145.257 11.52C145.257 12.7296 145.136 13.775 144.894 14.6563C144.652 15.5203 144.263 16.2288 143.728 16.7818C143.209 17.3174 142.535 17.7149 141.706 17.9741C140.877 18.2333 139.874 18.3629 138.699 18.3629ZM137.014 14.8896H139.321C139.736 14.8896 140.013 14.8464 140.151 14.76C140.306 14.6563 140.384 14.4662 140.384 14.1898V8.1504H138.077C137.662 8.1504 137.377 8.20224 137.222 8.30592C137.084 8.39232 137.014 8.57376 137.014 8.85024V14.8896ZM152.283 14.7341C152.525 14.7686 152.749 14.8032 152.957 14.8378C153.164 14.855 153.363 14.8723 153.553 14.8896L153.32 17.9741C152.853 18.095 152.404 18.1901 151.972 18.2592C151.54 18.3283 151.125 18.3629 150.728 18.3629C149.708 18.3629 148.948 18.1555 148.447 17.7408C147.963 17.3088 147.721 16.6435 147.721 15.745V1.152L152.283 0.763199V14.7341ZM161.376 18.3629C160.252 18.3629 159.285 18.2333 158.473 17.9741C157.66 17.7149 156.995 17.3088 156.477 16.7558C155.958 16.2029 155.57 15.4944 155.31 14.6304C155.068 13.7664 154.947 12.7296 154.947 11.52C154.947 9.89568 155.172 8.5824 155.621 7.58016C156.088 6.57792 156.796 5.84352 157.747 5.37696C158.715 4.9104 159.959 4.67712 161.479 4.67712C163 4.67712 164.184 4.80672 165.03 5.06592C165.877 5.32512 166.473 5.76576 166.819 6.38784C167.182 7.00992 167.363 7.86528 167.363 8.95392C167.363 9.76608 167.234 10.4486 166.974 11.0016C166.732 11.5373 166.326 11.9693 165.756 12.2976C165.186 12.6259 164.417 12.8592 163.449 12.9974C162.482 13.1357 161.281 13.2048 159.846 13.2048H159.069V10.8202H161.376C162.084 10.8202 162.568 10.7424 162.827 10.5869C163.104 10.4141 163.242 10.103 163.242 9.65376V8.04672H161.713C161.004 8.04672 160.512 8.12448 160.235 8.28C159.976 8.43552 159.846 8.72928 159.846 9.16128V14.8378C160.088 14.8896 160.365 14.9328 160.676 14.9674C161.004 14.9846 161.41 14.9933 161.894 14.9933C162.62 14.9933 163.354 14.9414 164.097 14.8378C164.84 14.7168 165.627 14.544 166.456 14.3194L167.026 17.5075C166.179 17.784 165.281 17.9914 164.331 18.1296C163.38 18.2851 162.395 18.3629 161.376 18.3629Z" fill="url(#paint0_linear_18_1621)"/>
<defs>
<linearGradient id="paint0_linear_18_1621" x1="-1" y1="10.5" x2="169" y2="10.5" gradientUnits="userSpaceOnUse">
<stop stop-color="#CC0000"/>
<stop offset="0.0001" stop-color="#B30000"/>
<stop offset="1" stop-color="#AE0E19"/>
<stop offset="1" stop-color="#FF0000"/>
</linearGradient>
</defs>
</svg>
